<?xml version="1.0" encoding="utf-8"?>
<!-- Generator: Adobe Illustrator 17.1.0, SVG Export Plug-In . SVG Version: 6.00 Build 0)  -->
<!DOCTYPE svg PUBLIC "-//W3C//DTD SVG 1.1//EN" "http://www.w3.org/Graphics/SVG/1.1/DTD/svg11.dtd">
<svg version="1.1" id="Capa_1" xmlns="http://www.w3.org/2000/svg" xmlns:xlink="http://www.w3.org/1999/xlink" x="0px" y="0px"
	 width="216px" height="146px" viewBox="0 0 216 146" enable-background="new 0 0 216 146" xml:space="preserve">
<g>
	<path fill="#FFFFFF" d="M59,49.1c-2.3,0-4.3,0.8-5.9,2.4s-2.4,3.6-2.4,5.9v35c0,2.3,0.8,4.3,2.4,5.9s3.6,2.4,5.9,2.4
		c2.3,0,4.3-0.8,5.9-2.4c1.6-1.6,2.4-3.6,2.4-5.9v-35c0-2.3-0.8-4.2-2.4-5.9C63.3,49.9,61.3,49.1,59,49.1z"/>
	<path fill="#FFFFFF" d="M70.6,104.9c0,2.5,0.9,4.6,2.6,6.4c1.7,1.7,3.9,2.6,6.4,2.6h6l0.1,18.5c0,2.3,0.8,4.3,2.4,5.9
		s3.6,2.4,5.9,2.4c2.3,0,4.3-0.8,5.9-2.4s2.4-3.6,2.4-5.9v-18.5h11.2v18.5c0,2.3,0.8,4.3,2.4,5.9c1.6,1.6,3.6,2.4,5.9,2.4
		c2.3,0,4.3-0.8,5.9-2.4c1.6-1.6,2.4-3.6,2.4-5.9v-18.5h6.1c2.4,0,4.5-0.9,6.3-2.6s2.6-3.9,2.6-6.4V50.7H70.6V104.9z"/>
	<path fill="#FFFFFF" d="M126.5,17.7L132.3,7c0.4-0.7,0.2-1.2-0.4-1.6c-0.7-0.3-1.2-0.2-1.6,0.5l-5.9,10.8
		c-5.2-2.3-10.6-3.4-16.4-3.4c-5.8,0-11.2,1.1-16.4,3.4L85.8,5.9c-0.4-0.7-0.9-0.8-1.6-0.5c-0.7,0.4-0.8,0.9-0.4,1.6l5.8,10.7
		c-5.9,3-10.5,7.2-14,12.5c-3.5,5.3-5.2,11.2-5.2,17.6h75.4c0-6.4-1.7-12.2-5.2-17.6S132.3,20.7,126.5,17.7z M93,33.2
		c-0.6,0.6-1.4,0.9-2.2,0.9s-1.6-0.3-2.2-0.9c-0.6-0.6-0.9-1.4-0.9-2.2s0.3-1.6,0.9-2.2s1.3-0.9,2.2-0.9c0.9,0,1.6,0.3,2.2,0.9
		S94,30.1,94,31S93.7,32.6,93,33.2z M127.4,33.2c-0.6,0.6-1.3,0.9-2.2,0.9s-1.6-0.3-2.2-0.9c-0.6-0.6-0.9-1.4-0.9-2.2
		s0.3-1.6,0.9-2.2c0.6-0.6,1.4-0.9,2.2-0.9s1.6,0.3,2.2,0.9c0.6,0.6,0.9,1.4,0.9,2.2S128,32.6,127.4,33.2z"/>
	<path fill="#FFFFFF" d="M162.9,51.5c-1.6-1.6-3.6-2.4-5.9-2.4c-2.3,0-4.2,0.8-5.9,2.4c-1.6,1.6-2.4,3.6-2.4,5.9v35
		c0,2.3,0.8,4.3,2.4,5.9c1.6,1.6,3.6,2.4,5.9,2.4c2.3,0,4.3-0.8,5.9-2.4c1.6-1.6,2.4-3.6,2.4-5.9v-35
		C165.4,55.1,164.5,53.1,162.9,51.5z"/>
</g>
</svg>
